<?xml version="1.0" encoding="utf-8"?>
<!-- Generator: Adobe Illustrator 24.3.0, SVG Export Plug-In . SVG Version: 6.00 Build 0)  -->
<svg version="1.1" id="Layer_1" xmlns="http://www.w3.org/2000/svg" xmlns:xlink="http://www.w3.org/1999/xlink" x="0px" y="0px"
	 viewBox="0 0 193.1 40.79" style="enable-background:new 0 0 193.1 40.79;" xml:space="preserve">
<style type="text/css">
	.st0{fill:#F1F2F2;}
	.st1{fill:#7BAAA3;}
	.st2{fill:#FFFFFF;}
</style>
<polygon class="st0" points="23.16,0.92 16.39,12.67 16.34,12.67 23.23,24.53 29.92,12.64 "/>
<polygon class="st1" points="45.56,39.57 31.51,15.38 24.87,27.32 31.97,39.56 31.96,39.57 "/>
<path class="st0" d="M21.64,27.29l-6.83-11.78L0.9,39.57c0,0,12.74,1.33,18.13-7.8L21.64,27.29z"/>
<g>
	<path class="st2" d="M63.18,25.46l0.73-0.76c0.37,0.48,0.74,0.75,1.27,0.75c0.59,0,1-0.4,1-1.24v-4.12h1.14v4.16
		c0,0.75-0.22,1.31-0.59,1.67s-0.9,0.56-1.53,0.56C64.22,26.47,63.59,26.02,63.18,25.46z"/>
	<path class="st2" d="M71.75,20.04h1.03l2.77,6.35h-1.17l-0.64-1.52h-2.98l-0.65,1.52h-1.13L71.75,20.04z M73.33,23.88l-1.09-2.52
		l-1.08,2.52H73.33z"/>
	<path class="st2" d="M77,25.47l0.67-0.79c0.6,0.52,1.21,0.82,1.99,0.82c0.68,0,1.12-0.32,1.12-0.79v-0.02
		c0-0.45-0.25-0.69-1.42-0.96c-1.34-0.32-2.1-0.72-2.1-1.88v-0.02c0-1.08,0.9-1.83,2.15-1.83c0.92,0,1.65,0.28,2.29,0.79l-0.59,0.84
		c-0.57-0.42-1.13-0.65-1.71-0.65c-0.65,0-1.03,0.33-1.03,0.75v0.02c0,0.49,0.29,0.7,1.5,0.99c1.33,0.32,2.02,0.8,2.02,1.85v0.02
		c0,1.18-0.93,1.88-2.25,1.88C78.67,26.47,77.76,26.14,77,25.47z"/>
	<path class="st2" d="M83.8,23.25v-0.02c0-1.77,1.37-3.26,3.3-3.26s3.29,1.47,3.29,3.24v0.02c0,1.77-1.37,3.26-3.3,3.26
		S83.8,25.02,83.8,23.25z M89.23,23.25v-0.02c0-1.22-0.89-2.23-2.14-2.23c-1.25,0-2.12,0.99-2.12,2.21v0.02
		c0,1.22,0.89,2.23,2.14,2.23C88.36,25.47,89.23,24.47,89.23,23.25z"/>
	<path class="st2" d="M92.63,20.08h1.03l3.38,4.36v-4.36h1.09v6.3H97.2l-3.48-4.48v4.48h-1.09V20.08z"/>
	<path class="st2" d="M106.48,20.04h1.03l2.77,6.35h-1.17l-0.64-1.52h-2.98l-0.65,1.52h-1.13L106.48,20.04z M108.06,23.88
		l-1.09-2.52l-1.08,2.52H108.06z"/>
	<path class="st2" d="M117.4,20.08l-2.2,3.08l2.29,3.22h-1.3l-1.67-2.4l-1.66,2.4h-1.27l2.28-3.21l-2.19-3.1h1.31l1.56,2.28
		l1.58-2.28H117.4z"/>
	<path class="st2" d="M119.54,20.08h4.67v0.99h-3.56v1.64h3.16v1h-3.16v1.68h3.61v0.99h-4.72V20.08z"/>
	<path class="st2" d="M126.46,20.08h1.11v5.29h3.31v1.01h-4.42V20.08z"/>
	<path class="st2" d="M132.5,25.47l0.67-0.79c0.6,0.52,1.21,0.82,1.99,0.82c0.68,0,1.12-0.32,1.12-0.79v-0.02
		c0-0.45-0.25-0.69-1.42-0.96c-1.34-0.32-2.1-0.72-2.1-1.88v-0.02c0-1.08,0.9-1.83,2.15-1.83c0.92,0,1.65,0.28,2.29,0.79l-0.59,0.84
		c-0.57-0.42-1.13-0.65-1.71-0.65c-0.65,0-1.03,0.33-1.03,0.75v0.02c0,0.49,0.29,0.7,1.5,0.99c1.33,0.32,2.02,0.8,2.02,1.85v0.02
		c0,1.18-0.93,1.88-2.25,1.88C134.17,26.47,133.26,26.14,132.5,25.47z"/>
	<path class="st2" d="M139.31,23.25v-0.02c0-1.77,1.37-3.26,3.3-3.26s3.29,1.47,3.29,3.24v0.02c0,1.77-1.37,3.26-3.3,3.26
		S139.31,25.02,139.31,23.25z M144.74,23.25v-0.02c0-1.22-0.89-2.23-2.14-2.23c-1.25,0-2.12,0.99-2.12,2.21v0.02
		c0,1.22,0.89,2.23,2.14,2.23C143.86,25.47,144.74,24.47,144.74,23.25z"/>
	<path class="st2" d="M148.14,20.08h1.03l3.38,4.36v-4.36h1.09v6.3h-0.93l-3.48-4.48v4.48h-1.09V20.08z"/>
	<path class="st2" d="M63.52,38.47l0.31-0.35c0.69,0.64,1.33,0.94,2.26,0.94c0.95,0,1.59-0.53,1.59-1.25v-0.02
		c0-0.67-0.35-1.05-1.78-1.34c-1.51-0.31-2.13-0.82-2.13-1.77v-0.02c0-0.94,0.86-1.66,2.03-1.66c0.92,0,1.52,0.25,2.16,0.77
		l-0.3,0.37c-0.59-0.51-1.19-0.71-1.88-0.71c-0.93,0-1.54,0.53-1.54,1.19v0.02c0,0.67,0.34,1.07,1.84,1.38
		c1.46,0.3,2.07,0.82,2.07,1.74v0.02c0,1.02-0.87,1.72-2.09,1.72C65.05,39.47,64.27,39.14,63.52,38.47z"/>
	<path class="st2" d="M70.3,36.25v-0.02c0-1.72,1.27-3.26,3.18-3.26c1.91,0,3.16,1.52,3.16,3.24v0.02c0,1.72-1.27,3.26-3.18,3.26
		C71.55,39.49,70.3,37.97,70.3,36.25z M76.16,36.25v-0.02c0-1.56-1.13-2.84-2.69-2.84s-2.67,1.26-2.67,2.82v0.02
		c0,1.56,1.13,2.84,2.69,2.84S76.16,37.81,76.16,36.25z"/>
	<path class="st2" d="M79.13,33.08h4.44v0.43H79.6v2.58h3.57v0.43H79.6v2.85h-0.47V33.08z"/>
	<path class="st2" d="M87.64,33.51h-2.2v-0.43h4.86v0.43h-2.2v5.87h-0.47V33.51z"/>
	<path class="st2" d="M92.09,33.08h0.52l1.98,5.61l1.85-5.63h0.36l1.85,5.63l1.98-5.61h0.49l-2.29,6.35h-0.38l-1.84-5.47l-1.85,5.47
		h-0.38L92.09,33.08z"/>
	<path class="st2" d="M104.98,33.04h0.45l2.93,6.35h-0.51l-0.8-1.76h-3.72l-0.8,1.76h-0.49L104.98,33.04z M106.85,37.2l-1.66-3.65
		l-1.67,3.65H106.85z"/>
	<path class="st2" d="M110.6,33.08h2.65c0.77,0,1.4,0.24,1.77,0.62c0.3,0.3,0.48,0.72,0.48,1.17v0.02c0,1.05-0.78,1.66-1.85,1.8
		l2.08,2.69h-0.59l-2.01-2.61h-2.06v2.61h-0.47V33.08z M113.19,36.35c1.05,0,1.84-0.53,1.84-1.44v-0.02c0-0.85-0.67-1.38-1.81-1.38
		h-2.15v2.84H113.19z"/>
	<path class="st2" d="M118,33.08h4.48v0.43h-4.02v2.48h3.61v0.43h-3.61v2.53h4.06v0.43H118V33.08z"/>
	<path class="st2" d="M128.54,33.08h2.1c1.98,0,3.35,1.36,3.35,3.13v0.02c0,1.77-1.37,3.15-3.35,3.15h-2.1V33.08z M129,33.51v5.44
		h1.63c1.75,0,2.86-1.2,2.86-2.7v-0.02c0-1.49-1.11-2.72-2.86-2.72H129z"/>
	<path class="st2" d="M136.47,33.08h4.48v0.43h-4.02v2.48h3.61v0.43h-3.61v2.53H141v0.43h-4.53V33.08z"/>
	<path class="st2" d="M142.86,33.08h0.52l2.47,5.8l2.48-5.8h0.5l-2.77,6.35h-0.41L142.86,33.08z"/>
	<path class="st2" d="M151.05,33.08h4.48v0.43h-4.02v2.48h3.61v0.43h-3.61v2.53h4.06v0.43h-4.53V33.08z"/>
	<path class="st2" d="M157.98,33.08h0.47v5.87h3.7v0.43h-4.17V33.08z"/>
	<path class="st2" d="M163.68,36.25v-0.02c0-1.72,1.27-3.26,3.18-3.26c1.91,0,3.16,1.52,3.16,3.24v0.02c0,1.72-1.27,3.26-3.18,3.26
		C164.93,39.49,163.68,37.97,163.68,36.25z M169.53,36.25v-0.02c0-1.56-1.13-2.84-2.69-2.84s-2.67,1.26-2.67,2.82v0.02
		c0,1.56,1.13,2.84,2.69,2.84S169.53,37.81,169.53,36.25z"/>
	<path class="st2" d="M172.51,33.08h2.29c1.39,0,2.34,0.71,2.34,1.93v0.02c0,1.32-1.14,2.01-2.46,2.01h-1.7v2.35h-0.47V33.08z
		 M174.71,36.6c1.17,0,1.96-0.61,1.96-1.55v-0.02c0-1-0.77-1.52-1.91-1.52h-1.78v3.09H174.71z"/>
	<path class="st2" d="M179.42,33.08h4.48v0.43h-4.02v2.48h3.61v0.43h-3.61v2.53h4.06v0.43h-4.53V33.08z"/>
	<path class="st2" d="M186.35,33.08H189c0.77,0,1.4,0.24,1.77,0.62c0.3,0.3,0.48,0.72,0.48,1.17v0.02c0,1.05-0.78,1.66-1.85,1.8
		l2.08,2.69h-0.59l-2.01-2.61h-2.06v2.61h-0.47V33.08z M188.95,36.35c1.05,0,1.84-0.53,1.84-1.44v-0.02c0-0.85-0.67-1.38-1.81-1.38
		h-2.15v2.84H188.95z"/>
</g>
</svg>
